<?xml version="1.0" standalone="no"?>
<!DOCTYPE svg PUBLIC "-//W3C//DTD SVG 20010904//EN"
 "http://www.w3.org/TR/2001/REC-SVG-20010904/DTD/svg10.dtd">
<svg version="1.0" xmlns="http://www.w3.org/2000/svg"
 width="1280.000000pt" height="898.000000pt" viewBox="0 0 1280.000000 898.000000"
 preserveAspectRatio="xMidYMid meet">
<g transform="translate(0.000000,898.000000) scale(0.100000,-0.100000)" stroke="none">
<path d="M3452 8973 c-7 -3 -19 -17 -27 -33 -11 -21 -24 -30 -54 -35 -87 -15
-177 -103 -207 -203 -8 -25 -14 -82 -14 -126 0 -107 -11 -141 -63 -196 -109
-114 -123 -154 -64 -190 40 -25 74 -25 162 0 88 24 95 18 95 -86 0 -81 5 -88
70 -101 35 -7 48 -15 58 -36 7 -15 20 -27 28 -27 15 0 38 -18 82 -62 42 -44
75 -38 137 27 57 59 67 63 121 40 28 -12 34 -18 29 -37 -4 -18 5 -32 47 -69
74 -63 74 -63 114 -40 36 22 54 20 54 -4 0 -19 53 -61 95 -75 33 -11 35 -14
35 -57 0 -29 7 -55 20 -74 17 -23 19 -32 10 -50 -10 -17 -7 -32 15 -80 14 -33
24 -63 21 -68 -3 -4 -27 -11 -52 -15 -26 -3 -55 -13 -65 -21 -15 -14 -23 -14
-84 1 -64 16 -69 19 -83 55 -12 32 -21 40 -49 45 -19 4 -51 4 -73 0 -35 -5
-40 -4 -52 21 -18 37 -171 97 -240 94 -71 -3 -113 -2 -216 5 -84 5 -141 -1
-196 -22 -11 -4 -33 11 -72 50 -59 59 -74 64 -114 41 -26 -15 -117 -20 -158
-9 -12 4 -25 17 -28 30 -14 55 -85 69 -174 34 -88 -35 -150 -23 -174 33 -9 24
-24 38 -46 46 -47 16 -63 14 -130 -14 -65 -27 -156 -34 -181 -12 -9 6 -23 24
-32 39 -18 29 -74 58 -112 58 -13 0 -46 -12 -75 -27 -40 -21 -70 -28 -136 -31
l-84 -5 0 42 0 41 -92 0 c-90 0 -93 -1 -126 -32 -31 -31 -38 -33 -118 -37 -72
-3 -84 -1 -84 13 0 30 -37 56 -82 56 -47 0 -99 -33 -120 -77 -10 -22 -28 -32
-83 -49 -38 -12 -82 -19 -97 -16 -16 2 -54 -5 -88 -18 l-60 -23 -61 28 c-33
15 -102 40 -153 56 -51 16 -106 39 -123 51 -17 13 -51 38 -74 56 -47 36 -80
48 -105 38 -23 -9 -14 -69 26 -173 25 -65 44 -96 95 -150 l63 -69 -30 -89
c-22 -64 -31 -114 -34 -174 -2 -66 -12 -112 -43 -205 -37 -113 -76 -297 -100
-480 -6 -43 -13 -81 -15 -85 -2 -3 -9 -51 -16 -105 -6 -55 -21 -129 -33 -165
-18 -57 -21 -98 -25 -301 -9 -455 -8 -480 15 -532 25 -54 208 -244 263 -273
63 -33 123 -25 235 29 150 73 183 99 213 165 26 56 26 61 19 211 -2 39 5 55
46 118 27 40 58 77 69 83 38 21 104 -16 209 -117 256 -245 442 -349 645 -361
172 -11 249 23 408 176 61 60 125 115 143 124 l31 16 47 -54 c26 -30 52 -55
59 -55 16 0 70 -58 90 -97 24 -48 20 -69 -16 -91 -56 -34 -106 -42 -313 -53
-227 -11 -245 -17 -303 -101 -73 -107 -77 -121 -77 -269 l0 -137 36 -53 c96
-142 149 -235 158 -280 6 -27 31 -93 57 -146 25 -54 56 -138 69 -187 33 -120
53 -156 109 -190 41 -26 56 -29 121 -29 60 0 79 4 96 19 18 17 40 19 173 22
202 4 240 -6 284 -73 18 -27 58 -87 89 -131 l56 -81 96 -9 c53 -4 171 -8 263
-8 149 -1 168 1 187 18 24 22 27 53 6 80 -8 11 -15 27 -15 36 0 22 -68 161
-135 275 -64 109 -126 166 -206 189 -42 13 -58 13 -115 1 -76 -16 -91 -26
-114 -80 -26 -60 -51 -79 -84 -64 -23 11 -25 16 -20 50 6 37 5 39 -42 69 -58
36 -95 47 -193 56 -68 7 -75 9 -90 36 -9 17 -67 109 -129 206 -97 152 -110
177 -93 180 11 2 82 -21 158 -52 204 -81 245 -92 388 -111 141 -18 182 -32
275 -95 78 -53 133 -77 332 -146 88 -30 203 -78 257 -105 94 -49 100 -51 231
-65 74 -7 275 -18 445 -24 298 -10 334 -13 505 -53 193 -45 798 -65 1135 -38
483 38 1085 17 1360 -49 97 -23 242 -73 310 -107 56 -29 186 -119 228 -158 15
-15 53 -65 84 -111 35 -55 79 -104 122 -140 145 -121 238 -201 281 -242 70
-68 123 -100 269 -167 133 -60 261 -138 311 -189 51 -52 218 -194 303 -258 61
-46 123 -81 200 -114 62 -26 134 -58 161 -71 79 -40 160 -125 238 -251 38 -62
101 -146 138 -187 38 -40 82 -100 98 -132 16 -32 63 -123 103 -203 41 -80 84
-170 96 -200 11 -30 47 -118 78 -195 32 -77 65 -167 75 -200 24 -79 75 -217
95 -255 8 -16 36 -54 60 -85 46 -55 60 -81 89 -165 9 -25 42 -79 74 -120 76
-100 268 -296 302 -310 38 -16 65 0 81 47 6 21 15 43 19 48 5 6 16 36 25 68
10 33 22 57 30 57 8 0 40 -24 72 -54 85 -79 211 -166 240 -166 87 0 161 242
134 437 -19 138 -47 188 -163 295 l-99 91 -52 -8 c-88 -13 -109 -10 -134 19
-27 31 -30 64 -7 80 27 20 6 61 -88 174 -92 111 -184 248 -195 292 -3 14 -16
39 -28 55 -27 37 -207 488 -224 560 -6 28 -17 95 -25 151 -8 55 -24 124 -35
152 -11 28 -25 80 -30 114 -9 56 -15 67 -51 99 -23 20 -92 67 -153 105 -256
158 -350 247 -521 493 -73 104 -136 239 -166 351 -35 128 -31 239 15 480 51
271 65 370 65 482 0 170 -16 228 -131 453 -56 110 -124 236 -151 279 -53 86
-57 122 -15 130 121 25 357 26 467 2 102 -22 144 -53 190 -143 51 -100 70
-197 80 -408 9 -185 19 -242 47 -270 21 -22 33 -4 33 53 0 62 16 43 30 -36 10
-56 9 -85 -4 -175 -25 -166 -22 -212 20 -317 42 -106 84 -167 116 -172 15 -2
29 -16 41 -43 11 -22 36 -58 57 -80 49 -50 73 -105 105 -236 14 -57 35 -133
48 -169 30 -85 137 -226 194 -258 23 -13 64 -52 92 -87 57 -72 104 -107 281
-207 193 -110 277 -147 371 -164 88 -17 182 -41 286 -74 87 -28 106 -26 68 6
l-30 26 44 -6 c57 -9 169 -61 252 -119 105 -71 175 -102 136 -59 -10 10 -17
22 -17 25 0 12 29 8 58 -7 32 -17 214 -49 240 -43 15 3 15 5 -3 12 -102 39
-153 82 -292 241 -47 55 -96 94 -207 168 -182 120 -355 280 -438 403 -119 178
-153 310 -168 663 -22 494 -41 623 -122 820 -50 122 -110 211 -220 332 -109
118 -256 218 -383 258 -22 7 -125 55 -230 106 -322 158 -494 202 -996 255 -90
9 -119 8 -187 -6 -139 -28 -235 -7 -512 115 -180 79 -311 122 -540 180 -262
66 -308 72 -700 80 -195 5 -371 12 -390 17 -33 8 -35 11 -40 59 -5 53 -28 97
-58 113 -9 5 -44 14 -76 20 -113 21 -132 56 -71 132 23 29 35 55 35 76 0 30
-3 32 -42 38 -24 3 -176 5 -338 3 -335 -3 -372 3 -539 82 -91 44 -231 143
-231 164 0 7 9 25 20 39 28 35 83 114 200 290 84 125 104 162 130 245 46 146
54 210 40 288 -15 80 -8 90 95 141 111 54 175 126 175 195 0 61 -6 63 -118 48
-87 -11 -172 -9 -172 6 0 2 18 27 40 55 22 28 40 54 40 57 1 4 5 27 9 51 9 46
-1 102 -22 119 -9 8 -28 0 -68 -27 -31 -21 -89 -48 -130 -62 -66 -21 -91 -24
-234 -23 -158 0 -162 1 -340 48 -99 26 -214 51 -255 56 -55 7 -118 26 -238 74
-166 66 -217 79 -352 91 -133 11 -238 52 -275 109 -33 50 -215 90 -305 66 -80
-21 -116 -23 -149 -6 -17 9 -51 19 -76 23 -25 3 -45 11 -45 18 0 24 -123 251
-153 283 -46 49 -77 61 -175 73 -71 9 -91 16 -109 35 -21 23 -75 32 -111 17z
m1619 -1778 c75 -46 126 -57 219 -44 71 10 75 10 92 -11 19 -23 34 -67 26 -75
-2 -3 -18 0 -34 7 -43 16 -84 -11 -84 -56 0 -17 -5 -38 -10 -46 -8 -13 -15
-12 -52 9 -154 87 -308 145 -414 155 -97 10 -104 13 -104 44 0 44 11 51 90 55
150 8 209 0 271 -38z m-3566 -803 c-27 -16 -69 -40 -92 -55 -47 -30 -48 -29
-33 25 12 43 39 56 120 57 l55 1 -50 -28z m343 -48 c136 -45 229 -101 317
-189 139 -138 203 -245 212 -354 6 -75 -6 -111 -38 -111 -37 0 -96 -39 -220
-146 -155 -134 -214 -164 -319 -164 -176 0 -362 89 -547 261 -108 100 -187
153 -254 169 l-51 13 6 35 c3 20 13 43 23 53 10 9 164 108 343 219 179 112
336 211 349 221 33 26 88 24 179 -7z"/>
</g>
</svg>
